# xmcd
#
# Track frame offsets:
# 150
# 22690
# 35910
# 52535
# 68132
# 85284
# 96947
# 111132
# 133260
# 148115
# 162733
# 181480
# 199522
#
# Disc length: 2813 seconds
#
#
# Revision: 0
# Processed by: cddbd v1.5.2PL0 Copyright (c) Steve Scherf et al.
# Submitted via: FreeRIP 2.95 
#
DISCID=b40afb0d
DTITLE=Keb Mo - Just Like You - Just Like You
DYEAR=1900
DGENRE=Blues
TTITLE0=That's Not Love
TTITLE1=Perpetual Blues Machine
TTITLE2=More Than One Way Home
TTITLE3=I'm On Your Side
TTITLE4=Just Like You
TTITLE5=You Can Love Yourself
TTITLE6=Dangerous Mood
TTITLE7=The Action
TTITLE8=Hand It Over
TTITLE9=Standin' At The Station
TTITLE10=Momma Where's My Daddy
TTITLE11=Last Fair Deal Gone Down
TTITLE12=Lullaby Baby Blue
EXTD=
EXTT0=
EXTT1=
EXTT2=
EXTT3=
EXTT4=
EXTT5=
EXTT6=
EXTT7=
EXTT8=
EXTT9=
EXTT10=
EXTT11=
EXTT12=
PLAYORDER=
